<?xml version="1.0" encoding="UTF-8"?>
<!DOCTYPE svg PUBLIC "-//W3C//DTD SVG 1.1//EN" "http://www.w3.org/Graphics/SVG/1.1/DTD/svg11.dtd">
<svg version="1.1" id="Layer_1" xmlns="http://www.w3.org/2000/svg" xmlns:xlink="http://www.w3.org/1999/xlink" x="0px" y="0px" width="32px" height="32px" viewBox="0 0 32 32" enable-background="new 0 0 32 32" xml:space="preserve">
  <g id="icon">
    <path d="M10.4,3.5H2.5V1.074C2.5,0.757,2.757,0.5,3.074,0.5h3.937c0.221,0,0.437,0.07,0.617,0.199l1.629,1.573C9.463,2.42,9.711,2.5,9.965,2.5H10.4V3.5z" fill="#FFFFFF"/>
    <path d="M14.5,9.5H2.5V3.5h4.953c0.302,0,0.602,-0.041,0.894,-0.121L9.537,2.5H14.5V9.5z" fill="#F7DA8E"/>
    <path d="M9.965,2c-0.14,0,-0.274,-0.04,-0.39,-0.116L7.95,0.314L7.92,0.293C7.654,0.101,7.34,0,7.011,0H3.074C2.482,0,2,0.482,2,1.074V3v1v6h13V2H9.965zM3,1.074c0,-0.041,0.033,-0.074,0.074,-0.074h3.937c0.107,0,0.21,0.03,0.299,0.088l1.429,1.38l-0.612,0.452C7.907,2.973,7.68,3,7.453,3H3V1.074zM14,9H3V4h3.7h0.753c0.346,0,0.691,-0.047,1.026,-0.139l0.09,-0.025L9.702,3H14V9z" fill="#E57428"/>
    <path d="M25.4,14.5h-7.9v-2.426c0,-0.317,0.257,-0.574,0.574,-0.574h3.937c0.221,0,0.437,0.07,0.617,0.199l1.629,1.573c0.206,0.148,0.454,0.228,0.708,0.228H25.4V14.5z" fill="#FFFFFF"/>
    <path d="M29.5,20.5H17.5v-6h4.953c0.302,0,0.602,-0.041,0.894,-0.121l1.19,-0.879H29.5V20.5z" fill="#F7DA8E"/>
    <path d="M24.965,13c-0.14,0,-0.274,-0.04,-0.39,-0.116l-1.626,-1.57l-0.029,-0.021c-0.266,-0.192,-0.581,-0.293,-0.909,-0.293h-3.937c-0.592,0,-1.074,0.482,-1.074,1.074V14v1v6h13v-8H24.965zM18,12.074c0,-0.041,0.033,-0.074,0.074,-0.074h3.937c0.107,0,0.21,0.03,0.299,0.088l1.429,1.38l-0.612,0.452c-0.221,0.053,-0.448,0.081,-0.675,0.081H18V12.074zM29,20H18v-5h3.7h0.753c0.346,0,0.691,-0.047,1.026,-0.139l0.09,-0.025l1.132,-0.837H29V20z" fill="#E57428"/>
    <path d="M25.4,25.5h-7.9v-2.426c0,-0.317,0.257,-0.574,0.574,-0.574h3.937c0.221,0,0.437,0.07,0.617,0.199l1.629,1.573c0.206,0.148,0.454,0.228,0.708,0.228H25.4V25.5z" fill="#FFFFFF"/>
    <path d="M29.5,31.5H17.5v-6h4.953c0.302,0,0.602,-0.041,0.894,-0.121l1.19,-0.879H29.5V31.5z" fill="#F7DA8E"/>
    <path d="M24.965,24c-0.14,0,-0.274,-0.04,-0.39,-0.116l-1.626,-1.57l-0.029,-0.021c-0.266,-0.192,-0.581,-0.293,-0.909,-0.293h-3.937c-0.592,0,-1.074,0.482,-1.074,1.074V25v1v6h13v-8H24.965zM18,23.074c0,-0.041,0.033,-0.074,0.074,-0.074h3.937c0.107,0,0.21,0.03,0.299,0.088l1.429,1.38l-0.612,0.452c-0.221,0.053,-0.448,0.081,-0.675,0.081H18V23.074zM29,31H18v-5h3.7h0.753c0.346,0,0.691,-0.047,1.026,-0.139l0.09,-0.025l1.132,-0.837H29V31z" fill="#E57428"/>
    <path d="M16.967,27.5H8.5V10M8.5,16.5h8.5" fill="none" stroke="#383838" stroke-width="1" stroke-miterlimit="10"/>
  </g>
</svg>
