<?xml version="1.0" encoding="UTF-8"?>
<!DOCTYPE svg PUBLIC "-//W3C//DTD SVG 1.1//EN" "http://www.w3.org/Graphics/SVG/1.1/DTD/svg11.dtd">
<svg version="1.1" id="Layer_1" xmlns="http://www.w3.org/2000/svg" xmlns:xlink="http://www.w3.org/1999/xlink" x="0px" y="0px" width="21px" height="21px" viewBox="0 0 21 21" enable-background="new 0 0 21 21" xml:space="preserve">
  <g id="main">
    <g id="icon">
      <path d="M8.075,0.04082L8.045,0.04258L6.731,0.1592L6.699,0.1631L5.51,0.3475L5.471,0.3549L4.436,0.5992L4.387,0.6133L3.532,0.9094L3.463,0.9393L2.817,1.279L2.712,1.354L2.304,1.729L2.201,1.861L2.095,2.06L2.044,2.208L2.008,2.413L2.008,2.587L2.044,2.792L2.095,2.94L2.201,3.139L2.304,3.271L2.712,3.646L2.817,3.721L3.463,4.061L3.532,4.091L4.387,4.387L4.436,4.401L5.471,4.645L5.51,4.653L6.699,4.837L6.731,4.841L8.045,4.957L8.075,4.959L9.486,5L9.514,5L10.93,4.959L10.95,4.957L12.27,4.841L12.3,4.837L13.49,4.653L13.53,4.645L14.56,4.401L14.61,4.387L15.47,4.091L15.54,4.061L16.18,3.721L16.29,3.646L16.7,3.271L16.8,3.139L16.9,2.94L16.96,2.792L16.99,2.587L16.99,2.413L16.96,2.208L16.9,2.06L16.8,1.861L16.7,1.729L16.29,1.354L16.18,1.279L15.54,0.9393L15.47,0.9094L14.61,0.6133L14.56,0.5992L13.53,0.3549L13.49,0.3475L12.3,0.1631L12.27,0.1592L10.95,0.04258L10.93,0.04082L9.514,0.0001953L9.486,0.0001953zM10.88,1.04L12.17,1.154L13.32,1.333L14.31,1.567L15.11,1.842L15.66,2.133L15.96,2.408L15.99,2.461L15.99,2.5L15.99,2.539L15.96,2.592L15.66,2.867L15.11,3.158L14.31,3.433L13.32,3.667L12.17,3.846L10.88,3.96L9.5,4L8.118,3.96L6.834,3.846L5.682,3.667L4.689,3.433L3.894,3.158L3.341,2.867L3.043,2.592L3.015,2.539L3.008,2.5L3.015,2.461L3.043,2.408L3.341,2.133L3.894,1.842L4.689,1.567L5.682,1.333L6.834,1.154L8.118,1.04L9.5,1zz" fill="#434a54"/>
      <path d="M2.198,6.702L2.014,6.984L2.006,7.18L2.043,7.404L2.088,7.545L2.194,7.76L2.259,7.86L2.431,8.066L2.495,8.129L2.73,8.325L2.808,8.378L3.453,8.736L3.526,8.769L4.381,9.076L4.433,9.092L5.469,9.342L5.509,9.35L6.698,9.537L6.731,9.541L8.045,9.658L8.075,9.659L9.486,9.7L9.514,9.7L10.93,9.659L10.96,9.658L12.27,9.541L12.3,9.537L13.49,9.35L13.53,9.342L14.57,9.092L14.62,9.076L15.47,8.769L15.55,8.736L16.19,8.378L16.27,8.325L16.5,8.129L16.57,8.066L16.74,7.86L16.81,7.76L16.91,7.545L16.96,7.404L16.99,7.18L16.93,6.849L16.68,6.632L16.34,6.627L16.08,6.837L16.01,7.02L15.98,7.17L15.94,7.264L15.83,7.39L15.67,7.526L15.1,7.842L14.31,8.126L13.32,8.365L12.16,8.546L10.88,8.66L9.5,8.7L8.119,8.66L6.836,8.546L5.683,8.365L4.693,8.126L3.903,7.842L3.333,7.526L3.17,7.39L3.064,7.264L3.018,7.17L2.994,7.02L2.831,6.725L2.519,6.6zz" fill="#434a54"/>
      <path d="M2.205,11.2L2.016,11.47L2.005,11.67L2.041,11.92L2.078,12.05L2.184,12.3L2.242,12.4L2.415,12.63L2.476,12.69L2.711,12.91L2.79,12.97L3.436,13.36L3.514,13.4L4.369,13.73L4.425,13.75L5.461,14.02L5.504,14.03L6.693,14.23L6.729,14.23L8.043,14.36L8.074,14.36L9.485,14.4L9.515,14.4L10.93,14.36L10.96,14.36L11,14.35L11,13.35L10.88,13.36L9.5,13.4L8.12,13.36L6.839,13.24L5.69,13.05L4.704,12.79L3.918,12.48L3.352,12.14L3.187,11.99L3.077,11.84L3.021,11.72L2.995,11.53L2.838,11.23L2.528,11.1zz" fill="#434a54"/>
      <path d="M2.215,15.09L2.019,15.36L2.004,15.56L2.04,15.87L2.065,15.97L2.171,16.27L2.213,16.36L2.386,16.65L2.435,16.72L2.67,16.99L2.74,17.06L3.386,17.57L3.465,17.62L4.32,18.07L4.384,18.09L5.42,18.46L5.473,18.47L6.662,18.75L6.709,18.76L8.023,18.93L8.068,18.94L9.479,19L9.521,19L10.93,18.94L10.98,18.93L11,18.93L11,17.92L10.87,17.94L9.5,18L8.133,17.94L6.863,17.77L5.726,17.51L4.75,17.16L3.968,16.76L3.399,16.31L3.222,16.1L3.097,15.89L3.026,15.69L2.996,15.44L2.847,15.14L2.54,15zz" fill="#434a54"/>
      <path d="M2.265,2.359L2.038,2.608L2,2.8L2,15.7L2.113,16.02L2.402,16.19L2.735,16.14L2.962,15.89L3,15.7L3,2.8L2.887,2.483L2.598,2.31zz" fill="#434a54"/>
      <path d="M16.27,2.359L16.04,2.608L16,2.8L16,11L17,11L17,2.8L16.89,2.483L16.6,2.31zz" fill="#434a54"/>
    </g>
    <g id="overlay">
      <path d="M20.105,20.5h-7.21c-0.2182,0,-0.395,-0.1768,-0.395,-0.395v-7.21c0,-0.2182,0.1768,-0.395,0.395,-0.395h5.9543c0.0965,0,0.189,0.0383,0.2573,0.1066l1.2869,1.2869c0.0682,0.0682,0.1066,0.1608,0.1066,0.2573v5.9543C20.5,20.3232,20.3232,20.5,20.105,20.5z" fill="none" stroke="#434a54" stroke-width="1" stroke-linecap="round" stroke-miterlimit="10" stroke-linejoin="round"/>
      <rect x="14.5" y="12.5" width="4" height="2" fill="none" stroke="#434a54" stroke-width="1" stroke-linecap="round" stroke-miterlimit="10" stroke-linejoin="round"/>
      <path d="M18.5,20.5h-4v-2.99c0,-0.2817,0.1683,-0.51,0.45,-0.51h3.04c0.2817,0,0.51,0.2283,0.51,0.51V20.5z" fill="none" stroke="#434a54" stroke-width="1" stroke-linecap="round" stroke-miterlimit="10" stroke-linejoin="round"/>
    </g>
  </g>
</svg>
