<?xml version="1.0" encoding="UTF-8"?>
<!DOCTYPE svg PUBLIC "-//W3C//DTD SVG 1.1//EN" "http://www.w3.org/Graphics/SVG/1.1/DTD/svg11.dtd">
<svg version="1.1" id="Layer_1" xmlns="http://www.w3.org/2000/svg" xmlns:xlink="http://www.w3.org/1999/xlink" x="0px" y="0px" width="24px" height="24px" viewBox="0 0 24 24" enable-background="new 0 0 24 24" xml:space="preserve">
  <g id="icon">
    <path d="M14,10V8.2c0,-0.66,-0.54,-1.2,-1.2,-1.2H2.2c-0.66,0,-1.2,0.54,-1.2,1.2v1.8H14z" fill="#36BC9B"/>
    <path d="M1,10v7.8c0,0.66,0.54,1.2,1.2,1.2h10.6c0.66,0,1.2,-0.54,1.2,-1.2v-7.8" fill="#E6E9EE"/>
    <g>
      <path d="M11.5,11H3.5c-0.276,0,-0.5,0.224,-0.5,0.5s0.224,0.5,0.5,0.5h8c0.276,0,0.5,-0.224,0.5,-0.5S11.776,11,11.5,11z" fill="#536880" opacity="0.7"/>
    </g>
    <g>
      <path d="M11.5,13H3.5c-0.276,0,-0.5,0.224,-0.5,0.5s0.224,0.5,0.5,0.5h8c0.276,0,0.5,-0.224,0.5,-0.5S11.776,13,11.5,13z" fill="#536880" opacity="0.7"/>
    </g>
    <g>
      <path d="M11.5,15H3.5c-0.276,0,-0.5,0.224,-0.5,0.5s0.224,0.5,0.5,0.5h8c0.276,0,0.5,-0.224,0.5,-0.5S11.776,15,11.5,15z" fill="#536880" opacity="0.7"/>
    </g>
    <g>
      <path d="M11.5,17H3.5c-0.276,0,-0.5,0.224,-0.5,0.5s0.224,0.5,0.5,0.5h8c0.276,0,0.5,-0.224,0.5,-0.5S11.776,17,11.5,17z" fill="#536880" opacity="0.7"/>
    </g>
    <path d="M19,5l-2,-4H6.2c-0.66,0,-1.2,0.54,-1.2,1.2v3.8h8.063c1.07,0,1.938,0.867,1.938,1.938v10.125c0,1.07,-0.867,1.938,-1.938,1.938H5v1.8c0,0.66,0.54,1.2,1.2,1.2h15.6c0.66,0,1.2,-0.54,1.2,-1.2V7L19,5z" fill="#E6E9EE"/>
    <path d="M19.663,5.332L15,14.374v3.688c0,1.07,-0.867,1.938,-1.938,1.938h-1.271L9.7,23h12.1c0.66,0,1.2,-0.54,1.2,-1.2V7L19.663,5.332z" fill="#CCD0D9" opacity="0.5"/>
    <path d="M17,1v4.8c0,0.66,0.54,1.2,1.2,1.2h4.8L17,1z" fill="#AAB2BD"/>
    <path d="M13,7h-1.427L5.637,19H13c0.44,0,1,-0.571,1,-1.025v-9.95C14,7.571,13.44,7,13,7z" fill="#231F20" opacity="0.06"/>
  </g>
</svg>
