<?xml version="1.0" encoding="UTF-8"?>
<!DOCTYPE svg PUBLIC "-//W3C//DTD SVG 1.1//EN" "http://www.w3.org/Graphics/SVG/1.1/DTD/svg11.dtd">
<svg version="1.1" id="Layer_1" xmlns="http://www.w3.org/2000/svg" xmlns:xlink="http://www.w3.org/1999/xlink" x="0px" y="0px" width="21px" height="21px" viewBox="0 0 21 21" enable-background="new 0 0 21 21" xml:space="preserve">
  <g id="icon">
    <path d="M5.5,17v0.7c0,0.4418,0.3582,0.8,0.8,0.8h12.4c0.4418,0,0.8,-0.3582,0.8,-0.8V3.3c0,-0.4418,-0.3582,-0.8,-0.8,-0.8H6.3c-0.4418,0,-0.8,0.3582,-0.8,0.8v2.7" fill-rule="evenodd" fill="none" stroke="#434a54" stroke-width="1" stroke-linecap="round" stroke-miterlimit="10" stroke-linejoin="round"/>
    <circle cx="5.5" cy="11.5" r="4" fill="none" stroke="#434a54" stroke-width="1" stroke-miterlimit="10"/>
    <line x1="7.6" y1="11.5" x2="3.3" y2="11.5" fill="none" stroke="#434a54" stroke-width="1" stroke-linecap="round" stroke-miterlimit="10"/>
    <line x1="7.58" y1="11.5" x2="5.5746" y2="9.4601" fill="none" stroke="#434a54" stroke-width="1" stroke-linecap="round" stroke-miterlimit="10"/>
    <line x1="7.58" y1="11.5" x2="5.5746" y2="13.4199" fill="none" stroke="#434a54" stroke-width="1" stroke-linecap="round" stroke-miterlimit="10"/>
    <path d="M9.6,6.5h9.9M9.5,15.3v3.2M9.5,6.5v1.2M14.5,6.5v12M10.9,10.5h8.6M9.6,10.5M10.3,14.5h9.2" fill="none" stroke="#434a54" stroke-width="1" stroke-linecap="round" stroke-miterlimit="10" stroke-linejoin="round"/>
  </g>
</svg>
