<?xml version="1.0" encoding="UTF-8"?>
<!DOCTYPE svg PUBLIC "-//W3C//DTD SVG 1.1//EN" "http://www.w3.org/Graphics/SVG/1.1/DTD/svg11.dtd">
<svg version="1.1" id="Layer_1" xmlns="http://www.w3.org/2000/svg" xmlns:xlink="http://www.w3.org/1999/xlink" x="0px" y="0px" width="32px" height="32px" viewBox="0 0 32 32" enable-background="new 0 0 32 32" xml:space="preserve">
  <g id="icon">
    <polygon points="22.5,1.5 7.5,1.5 7.5,10 19,10 19,29 7.5,29 7.5,30.5 30.5,30.5 30.5,9.5" fill="#FFFFFF" stroke-linejoin="miter"/>
    <path d="M22.707,1H7v9h1V2h14v8h8v20H8v-1H7v2h24V9.293L22.707,1zM23,9V2.707L29.293,9H23z" fill="#383838"/>
    <path d="M20,12h-1v-1h1V12zM20,8h-9.5v1h9.5V8zM19,27h8.5v-1h-8.5V27zM20,5h-9.5v1h9.5V5zM19,14v1h8.5v-1H19zM19,18h8.5v-1h-8.5V18zM19,21h8.5v-1h-8.5V21zM19,24h8.5v-1h-8.5V24z" fill="#78797A" opacity="0.5"/>
    <rect x="1.5" y="11.5" width="16" height="16" fill="#FFFFFF" stroke="#228BCB" stroke-width="1" stroke-miterlimit="10"/>
    <path d="M4.5,16l0.5,-1.5h9l0.5,1.5M9.5,24.5v-9.9M7,24.5h4.9" fill="#FFFFFF" stroke="#228BCB" stroke-width="1" stroke-miterlimit="10"/>
  </g>
</svg>
