<?xml version="1.0" encoding="UTF-8"?>
<!DOCTYPE svg PUBLIC "-//W3C//DTD SVG 1.1//EN" "http://www.w3.org/Graphics/SVG/1.1/DTD/svg11.dtd">
<svg version="1.1" id="Layer_1" xmlns="http://www.w3.org/2000/svg" xmlns:xlink="http://www.w3.org/1999/xlink" x="0px" y="0px" width="32px" height="32px" viewBox="0 0 32 32" enable-background="new 0 0 32 32" xml:space="preserve">
  <g id="icon">
    <path d="M13.93,14.79c-0.051,1.524,-0.648,3.999,-1.754,5.718c-0.17,0.265,-0.494,0.378,-0.788,0.279c-0.895,-0.3,-1.919,-0.489,-2.719,-0.514c-0.743,-0.022,-1.651,0.054,-2.469,0.23c-0.34,0.073,-0.677,-0.125,-0.793,-0.461c-0.334,-0.964,-0.4,-2.463,-0.323,-4.783c0.128,-3.817,2.929,-6.83,5.304,-6.758C12.763,8.573,14.058,10.973,13.93,14.79zM5.484,26.203c-0.063,1.892,0.984,4.222,3.393,4.295c1.951,0.059,3.138,-0.906,3.22,-3.333c0.134,-3.998,-0.579,-3.066,-3.11,-3.143C6.529,23.948,5.602,22.681,5.484,26.203zM23.872,1.633c2.29,0.672,4.131,4.451,3.192,8.171c-0.571,2.262,-1.05,3.686,-1.638,4.511c-0.205,0.287,-0.581,0.373,-0.886,0.197c-0.734,-0.424,-1.58,-0.782,-2.297,-0.992c-0.771,-0.226,-1.803,-0.363,-2.742,-0.353c-0.309,0.003,-0.586,-0.206,-0.676,-0.515c-0.58,-2.003,-0.463,-4.576,-0.088,-6.061C19.677,2.871,21.582,0.961,23.872,1.633zM20.899,17.034c-2.44,-0.716,-2.864,-1.837,-3.846,2.06c-0.597,2.366,0.27,3.666,2.152,4.218c2.323,0.682,3.972,-1.237,4.437,-3.082C24.508,16.798,23.27,17.73,20.899,17.034z" fill="#FFFFFF" stroke="#383838" stroke-width="1" stroke-miterlimit="50"/>
  </g>
</svg>
